<svg xmlns="http://www.w3.org/2000/svg" viewBox="0 0 24 24" fill="none">
  <path
    d="M8.298 7.296h1.25V5.702c0-.308.084-.547.252-.715.168-.169.416-.253.746-.253h2.951V8.04c0 .406.103.71.308.913.206.203.511.304.916.304h3.02v5.63c0 .308-.083.547-.251.715-.168.169-.414.253-.738.253h-1.267v1.234h1.328c.729 0 1.276-.182 1.64-.544.365-.363.547-.91.547-1.641V9.609c0-.468-.055-.864-.165-1.186a2.372 2.372 0 0 0-.581-.904l-3.255-3.282a2.29 2.29 0 0 0-.886-.57 3.381 3.381 0 0 0-1.102-.167h-2.534c-.73 0-1.275.183-1.636.548-.362.366-.543.912-.543 1.637v1.61Zm6.319.557V5.299l2.82 2.854h-2.516c-.203 0-.304-.1-.304-.3ZM5 18.315c0 .731.18 1.278.542 1.64.362.364.907.545 1.637.545h6.336c.729 0 1.275-.183 1.64-.548.365-.366.547-.912.547-1.637V13.2c0-.474-.042-.844-.126-1.11-.084-.266-.276-.55-.577-.853l-3.602-3.633c-.284-.291-.562-.48-.833-.565-.272-.086-.617-.129-1.033-.129H7.179c-.73 0-1.275.183-1.637.549-.361.365-.542.91-.542 1.636v9.22Zm1.25-.017V9.112c0-.308.084-.547.252-.715.167-.169.416-.253.746-.253h2.074v3.805c0 .45.115.788.343 1.01.229.223.569.335 1.02.335h3.758v5.004c0 .308-.082.547-.247.715-.165.169-.412.253-.742.253H7.239c-.324 0-.57-.084-.737-.253-.168-.168-.252-.407-.252-.715Zm4.583-6.152c-.232 0-.348-.115-.348-.343V8.384l3.724 3.762h-3.376Z"
    fill="currentColor"
  />
</svg>
